<svg width="68" height="14" viewBox="0 0 68 14" fill="none" xmlns="http://www.w3.org/2000/svg">
<path fill-rule="evenodd" clip-rule="evenodd" d="M66.5724 13.9954C66.3822 13.9981 66.1935 13.9636 66.0174 13.8941C65.8413 13.8247 65.6816 13.7216 65.5477 13.5911C65.4138 13.4606 65.3086 13.3055 65.2382 13.1348C65.1678 12.9641 65.1338 12.7814 65.1382 12.5977V7.89786C65.1558 7.64202 65.1175 7.38543 65.0256 7.14488C64.9337 6.90433 64.7905 6.68518 64.6051 6.50169C64.4197 6.31819 64.1964 6.17447 63.9497 6.0799C63.703 5.98533 63.4384 5.94205 63.1732 5.95282C62.9064 5.94285 62.6406 5.98641 62.3921 6.08074C62.1436 6.17507 61.9181 6.31813 61.7297 6.50089C61.5414 6.68365 61.3942 6.90215 61.2976 7.14259C61.201 7.38303 61.1571 7.6402 61.1686 7.89786V12.5977C61.1686 12.9672 61.0167 13.3215 60.7463 13.5828C60.4758 13.8441 60.1091 13.9909 59.7267 13.9909C59.3442 13.9909 58.9773 13.8441 58.7068 13.5828C58.4364 13.3215 58.2845 12.9672 58.2845 12.5977V4.87888C58.2803 4.69682 58.3144 4.51584 58.3845 4.34683C58.4547 4.17783 58.5596 4.02429 58.6929 3.89552C58.8262 3.76676 58.9851 3.66543 59.1601 3.59764C59.335 3.52984 59.5223 3.49699 59.7108 3.50107C60.0239 3.49793 60.3287 3.5989 60.5739 3.78704C60.8192 3.97518 60.99 4.23905 61.0577 4.53441C61.8819 3.84707 62.9404 3.47896 64.029 3.50107C66.4377 3.50107 67.9986 5.08171 67.9986 7.5327V12.5977C68.0071 12.7818 67.9761 12.9655 67.9077 13.1375C67.8393 13.3094 67.735 13.466 67.6011 13.5972C67.4672 13.7283 67.3067 13.8314 67.1297 13.9C66.9527 13.9685 66.763 14.001 66.5724 13.9954ZM55.345 9.65994H49.3231C49.4946 10.2774 49.8874 10.8159 50.4316 11.1795C50.9757 11.5432 51.6359 11.7083 52.2944 11.6455C53.0705 11.6478 53.8324 11.4445 54.4971 11.0577C54.6812 10.9417 54.8955 10.8785 55.1152 10.8754C55.2673 10.8701 55.4191 10.8945 55.5613 10.9471C55.7034 10.9997 55.833 11.0795 55.9425 11.1817C56.052 11.2839 56.1391 11.4064 56.1985 11.5419C56.2578 11.6774 56.2881 11.823 56.2878 11.97C56.2822 12.1995 56.2112 12.4231 56.0826 12.616C55.954 12.809 55.7728 12.964 55.5589 13.0639C54.56 13.6841 53.3948 14.008 52.2074 13.9954C48.8795 13.9954 46.4232 11.7465 46.4232 8.74825C46.4125 8.05209 46.5472 7.36101 46.8196 6.71641C47.092 6.07181 47.4963 5.48698 48.0083 4.99699C48.5203 4.507 49.1296 4.12192 49.7994 3.86487C50.4692 3.60782 51.1857 3.48409 51.9062 3.50107C52.5605 3.47221 53.2139 3.57286 53.8265 3.7969C54.439 4.02093 54.9978 4.36361 55.4682 4.80385C55.9387 5.24408 56.311 5.77258 56.5623 6.3569C56.8136 6.94122 56.9387 7.56903 56.9297 8.20173V8.26218C56.9327 8.4581 56.8927 8.65244 56.8123 8.8323C56.7318 9.01216 56.6127 9.17346 56.4629 9.30557C56.3131 9.43768 56.136 9.53761 55.9433 9.59869C55.7506 9.65977 55.5467 9.68065 55.345 9.65994ZM51.8429 5.70941C51.244 5.70917 50.6638 5.91173 50.2035 6.28192C49.7431 6.65211 49.4315 7.16647 49.3231 7.73556H54.1327C54.1291 7.45449 54.0659 7.17714 53.947 6.92058C53.8281 6.66401 53.6561 6.4337 53.4415 6.24384C53.227 6.05399 52.9744 5.9086 52.6995 5.81668C52.4245 5.72477 52.1331 5.68827 51.8429 5.70941ZM46.1538 12.7393C46.1555 12.9047 46.1231 13.0687 46.0584 13.2218C45.9937 13.3749 45.8981 13.514 45.7771 13.6309C45.6562 13.7479 45.5121 13.8403 45.3537 13.9029C45.1953 13.9655 45.0256 13.997 44.8544 13.9954C44.6468 14.0021 44.4407 13.9594 44.2542 13.871C44.0677 13.7827 43.9064 13.6514 43.7847 13.4887L40.1716 9.27871C39.9103 9.00574 39.7539 8.65456 39.728 8.28362C39.752 7.89439 39.9342 7.53011 40.235 7.27018L43.6104 3.92743C43.7391 3.79377 43.8948 3.68701 44.0679 3.6138C44.241 3.5406 44.4277 3.50248 44.6167 3.50181C44.7868 3.49514 44.9566 3.52158 45.116 3.57951C45.2753 3.63744 45.4212 3.72571 45.5446 3.83908C45.668 3.95245 45.7665 4.0886 45.8344 4.23947C45.9023 4.39035 45.9382 4.55286 45.9398 4.71737C45.9348 4.90177 45.8908 5.08321 45.8104 5.25053C45.73 5.41786 45.615 5.56752 45.4725 5.69026L42.7784 8.28362L45.8131 11.8897C46.03 12.1234 46.1511 12.4255 46.1538 12.7393ZM37.8263 13.9954C37.6349 13.9997 37.4448 13.9665 37.267 13.8978C37.0893 13.8292 36.9278 13.7264 36.7923 13.5958C36.6568 13.4652 36.5501 13.3094 36.4786 13.1379C36.4071 12.9664 36.3724 12.7826 36.3764 12.5977V1.39835C36.3724 1.21348 36.4071 1.02976 36.4786 0.858226C36.5501 0.686694 36.6568 0.53089 36.7923 0.40028C36.9278 0.269669 37.0893 0.166925 37.267 0.0982366C37.4448 0.0295483 37.6349 -0.00363926 37.8263 0.000639148C38.0169 -0.00491507 38.2068 0.0275952 38.3838 0.0961343C38.5608 0.164673 38.7211 0.267775 38.855 0.398971C38.9889 0.530168 39.0932 0.686635 39.1616 0.8586C39.23 1.03057 39.261 1.21431 39.2525 1.39835V12.5947C39.2595 12.7785 39.2276 12.9617 39.1587 13.1332C39.0898 13.3046 38.9852 13.4607 38.8517 13.5919C38.7182 13.723 38.5586 13.8264 38.3822 13.8958C38.2059 13.9652 38.0166 13.9991 37.8263 13.9954ZM30.4022 11.4832C30.8255 11.4778 31.2425 11.3845 31.6253 11.2098C32.0081 11.0351 32.3476 10.783 32.6207 10.4705C32.7386 10.3302 32.8888 10.2186 33.0595 10.1447C33.2301 10.0707 33.4164 10.0366 33.6032 10.045C33.9399 10.0429 34.2638 10.1695 34.5043 10.3972C34.7447 10.6249 34.8821 10.9352 34.8867 11.2605C34.8884 11.5092 34.8048 11.7514 34.649 11.9494C34.168 12.6108 33.5228 13.1448 32.7724 13.5024C32.022 13.8599 31.1905 14.0294 30.3546 13.9954C29.6222 14.025 28.8911 13.9113 28.2054 13.6609C27.5197 13.4106 26.8935 13.0288 26.3644 12.5387C25.8354 12.0485 25.4144 11.46 25.1268 10.8086C24.8392 10.1573 24.691 9.45641 24.691 8.74825C24.691 8.04009 24.8392 7.33925 25.1268 6.68787C25.4144 6.03648 25.8354 5.448 26.3644 4.95783C26.8935 4.46767 27.5197 4.08593 28.2054 3.83558C28.8911 3.58523 29.6222 3.47146 30.3546 3.50107C31.1786 3.47989 31.996 3.64899 32.7388 3.99433C33.4815 4.33968 34.1282 4.8513 34.6252 5.48665C34.7899 5.69705 34.8815 5.95241 34.8867 6.21614C34.8821 6.54139 34.7447 6.85167 34.5043 7.07938C34.2638 7.30708 33.9399 7.43374 33.6032 7.43169C33.4162 7.4416 33.2294 7.40813 33.0585 7.33409C32.8876 7.26006 32.7375 7.14757 32.6207 7.00607C32.3523 6.68843 32.0137 6.43268 31.6299 6.25748C31.2461 6.08229 30.8267 5.99206 30.4022 5.99338C29.6602 6.01031 28.9546 6.30692 28.436 6.81985C27.9175 7.33278 27.627 8.02133 27.627 8.7383C27.627 9.45528 27.9175 10.1438 28.436 10.6568C28.9546 11.1697 29.6602 11.4663 30.4022 11.4832ZM21.7102 3.40693C21.3754 3.39043 21.053 3.27931 20.7831 3.08736C20.5131 2.89542 20.3072 2.63108 20.1913 2.32719C20.0754 2.0233 20.0546 1.69322 20.1311 1.37794C20.2077 1.06265 20.3784 0.77603 20.6221 0.55366C20.8658 0.331291 21.1719 0.18299 21.5021 0.127109C21.8323 0.0712286 22.1721 0.110234 22.4795 0.23933C22.787 0.368427 23.0485 0.581912 23.2314 0.853274C23.4144 1.12464 23.5109 1.44191 23.5088 1.76576C23.4933 2.21305 23.2957 2.63635 22.9589 2.94365C22.6221 3.25096 22.1734 3.41746 21.7102 3.40693ZM17.0908 11.5445C17.2651 11.5445 17.3919 11.5238 17.4949 11.5238C17.6556 11.5069 17.8181 11.5233 17.9718 11.5719C18.1254 11.6205 18.2667 11.7002 18.3859 11.8057C18.5051 11.9112 18.5997 12.04 18.6633 12.1836C18.7269 12.3271 18.7581 12.4822 18.7548 12.6383C18.7601 12.8691 18.6944 13.0962 18.566 13.2909C18.4377 13.4857 18.2524 13.6392 18.0337 13.7321C17.5577 13.9158 17.0486 14.0053 16.5362 13.9954C13.7789 13.9954 12.3051 12.6789 12.3051 10.2271V5.69638H11.7108C11.5501 5.70203 11.3899 5.67634 11.2398 5.62083C11.0896 5.56533 10.9526 5.48118 10.8368 5.37336C10.7211 5.26554 10.6291 5.1363 10.5662 4.99334C10.5033 4.85038 10.4708 4.69666 10.4708 4.54133C10.4708 4.386 10.5033 4.23227 10.5662 4.08931C10.6291 3.94636 10.7211 3.81711 10.8368 3.7093C10.9526 3.60148 11.0896 3.51728 11.2398 3.46178C11.3899 3.40627 11.5501 3.38058 11.7108 3.38623H12.3051V1.50244C12.3051 1.13296 12.4571 0.778622 12.7275 0.517359C12.998 0.256097 13.3647 0.109309 13.7472 0.109309C14.1296 0.109309 14.4964 0.256097 14.7668 0.517359C15.0372 0.778622 15.1893 1.13296 15.1893 1.50244V3.38852H17.1305C17.4476 3.38852 17.7516 3.51025 17.9758 3.72686C18.2 3.94348 18.3261 4.23727 18.3261 4.54362C18.3261 4.84996 18.2 5.14375 17.9758 5.36037C17.7516 5.57699 17.4476 5.69867 17.1305 5.69867H15.1893V9.98525C15.1893 11.0982 15.7438 11.5445 17.0908 11.5445ZM6.5368 6.07373C8.89005 7.06883 10.0232 8.16114 10.0232 9.98446C10.0232 12.4553 7.90768 13.9954 5.08695 13.9954C3.38557 13.9907 1.75346 13.3439 0.53893 12.1928C0.379665 12.0617 0.249714 11.9007 0.157075 11.7194C0.0644358 11.5382 0.0109142 11.3406 0 11.1388C0.0105722 10.8087 0.155421 10.496 0.403134 10.2684C0.650846 10.0409 0.981577 9.91685 1.32334 9.92325C1.59894 9.92025 1.86631 10.0138 2.07602 10.1866C2.45561 10.6007 2.91807 10.9363 3.43553 11.1731C3.953 11.4099 4.51479 11.543 5.08695 11.5644C6.34677 11.5644 7.0914 10.9972 7.0914 10.0855C7.0914 9.31546 6.60034 8.99169 5.3009 8.42448L3.77947 7.77611C1.53715 6.80321 0.364445 5.64891 0.364445 3.92664C0.364445 1.67773 2.3771 0.138416 5.03936 0.138416C5.77738 0.110444 6.51297 0.23716 7.19547 0.509884C7.87798 0.782608 8.49121 1.19489 8.99313 1.71834C9.11454 1.8313 9.21141 1.96649 9.27807 2.11606C9.34474 2.26563 9.37985 2.42658 9.38137 2.58943C9.36354 2.91707 9.21642 3.22564 8.9703 3.45173C8.72419 3.67782 8.39785 3.80421 8.05822 3.80493C7.76778 3.80389 7.48709 3.70356 7.26588 3.52172C6.68075 2.93584 5.8817 2.59415 5.03936 2.56952C4.01725 2.56952 3.28833 3.03566 3.28833 3.86618C3.28833 4.53442 3.67644 4.86126 4.93626 5.4055L6.5368 6.07373ZM21.7102 4.34534C21.8993 4.34043 22.0873 4.37268 22.2631 4.44009C22.4389 4.50749 22.5987 4.60868 22.7328 4.7375C22.8668 4.86633 22.9725 5.02013 23.0432 5.18956C23.114 5.359 23.1482 5.54054 23.1442 5.7232V12.5977C23.1442 12.7807 23.107 12.9618 23.0345 13.1308C22.9621 13.2999 22.8558 13.4534 22.7219 13.5828C22.588 13.7122 22.4291 13.8148 22.2542 13.8848C22.0792 13.9548 21.8917 13.9909 21.7023 13.9909C21.5129 13.9909 21.3254 13.9548 21.1504 13.8848C20.9754 13.8148 20.8164 13.7122 20.6825 13.5828C20.5486 13.4534 20.4423 13.2999 20.3699 13.1308C20.2974 12.9618 20.2602 12.7807 20.2602 12.5977V5.7232C20.2566 5.53936 20.2919 5.35672 20.3639 5.18648C20.4358 5.01624 20.5427 4.86196 20.6784 4.73302C20.8141 4.60408 20.9755 4.50323 21.1529 4.43658C21.3303 4.36993 21.52 4.33886 21.7102 4.34534Z" fill="white"/>
</svg>
