<svg width="69" height="69" viewBox="0 0 69 69" fill="none" xmlns="http://www.w3.org/2000/svg">
<g clip-path="url(#clip0)">
<path fill-rule="evenodd" clip-rule="evenodd" d="M69 69.0002L0.00997925 -0.0200195C15.1198 -0.0200195 16.5583 0.000128483 34.1729 0.000128483L68.9696 34.8122" fill="#20A223"/>
<path fill-rule="evenodd" clip-rule="evenodd" d="M26.7893 7.16578L27.3326 7.69921C27.6081 7.93284 27.79 8.25802 27.8454 8.61508C27.8465 8.77381 27.8132 8.93085 27.7471 9.07517C27.6811 9.21949 27.5841 9.34754 27.4632 9.45036C27.352 9.5785 27.212 9.67826 27.0545 9.74128C26.8971 9.8043 26.7268 9.82873 26.5579 9.81266C26.1567 9.72778 25.7932 9.5161 25.5215 9.20883L25.1393 8.81632L26.7893 7.16578ZM29.4752 8.77602C29.3475 8.00667 28.9562 7.30575 28.3685 6.79341L26.5781 5.00195L20.9946 10.5977L22.1818 11.7752L24.1638 9.79251L24.6766 10.2957C25.2083 10.9099 25.9447 11.3104 26.749 11.4229C27.1148 11.4441 27.4807 11.3817 27.8188 11.2405C28.157 11.0992 28.4584 10.8829 28.7005 10.6078C28.9606 10.3817 29.1656 10.0991 29.2998 9.7817C29.4341 9.46425 29.4941 9.12019 29.4752 8.77602ZM35.541 15.2776C35.4696 14.2539 35.0315 13.2903 34.3071 12.5637C33.5827 11.8372 32.6207 11.3963 31.5976 11.3223C30.5288 11.4953 29.5418 12.0006 28.7762 12.7666C28.0106 13.5325 27.5055 14.5202 27.3326 15.5895C27.3292 16.1032 27.4359 16.6117 27.6459 17.0804C27.8559 17.5492 28.1643 17.9675 28.5497 18.3069C28.8911 18.6932 29.3107 19.0025 29.7807 19.2142C30.2507 19.4259 30.7604 19.5351 31.2759 19.5347C32.3431 19.3617 33.3291 18.8577 34.0944 18.0939C34.8598 17.33 35.3656 16.3448 35.541 15.2776ZM31.7887 12.9628C32.0742 12.9285 32.3638 12.9648 32.6321 13.0683C32.9004 13.1718 33.1395 13.3394 33.3281 13.5565C34.2637 14.4925 34.1028 15.5895 32.8453 16.8475C31.5979 18.1055 30.491 18.2667 29.5454 17.3206C29.3295 17.1314 29.1638 16.8919 29.0621 16.6234C28.9603 16.3549 28.9256 16.0656 28.9619 15.7808C29.1198 15.0942 29.4896 14.4746 30.0184 14.0095C30.4805 13.4788 31.1012 13.1117 31.7887 12.9628ZM38.5589 18.9309L39.1022 19.4742C39.3752 19.7058 39.5572 20.0268 39.6155 20.38C39.6179 20.5414 39.5837 20.7012 39.5158 20.8476C39.4479 20.994 39.3478 21.1233 39.223 21.2255C39.1114 21.3504 38.9725 21.448 38.8173 21.5108C38.6621 21.5736 38.4946 21.6 38.3276 21.5878C37.9256 21.5051 37.5619 21.2929 37.2916 20.9839L36.8992 20.5915L38.5589 18.9309ZM41.235 20.5512C41.1122 19.7773 40.7202 19.0717 40.1283 18.5585L38.3477 16.7771L32.7647 22.3627L33.9416 23.5503L35.9335 21.5677L36.4365 22.0709C36.9748 22.6821 37.7127 23.0817 38.5186 23.1981C38.883 23.2199 39.2479 23.1577 39.5846 23.0164C39.9212 22.875 40.2207 22.6583 40.4604 22.3828C40.7215 22.1576 40.9272 21.8753 41.0616 21.5576C41.1959 21.2399 41.2553 20.8955 41.235 20.5512ZM46.9388 25.372L43.5289 28.7836C43.2175 29.1513 42.786 29.3972 42.3112 29.4781C41.874 29.4375 41.4649 29.2452 41.1544 28.9346C40.844 28.624 40.6518 28.2146 40.6112 27.7772C40.6858 27.3052 40.929 26.8762 41.2954 26.5695L44.7156 23.1477L43.5387 21.9703L39.9372 25.5732C39.6416 25.8366 39.4066 26.1612 39.2486 26.5243C39.0905 26.8875 39.013 27.2806 39.0216 27.6766C39.0952 28.5337 39.4952 29.33 40.1386 29.9008C40.5567 30.3372 41.0648 30.6771 41.6275 30.8972C42.1137 31.0787 42.6436 31.1068 43.1462 30.9777C43.6647 30.8403 44.135 30.5615 44.5044 30.1725L48.1157 26.5595L46.9388 25.372ZM47.6633 37.2778L48.6388 36.3016L46.3754 34.0271L50.9828 29.4177L49.7961 28.2402L44.2126 33.8258L47.6633 37.2778ZM53.6388 43.2559L57.2702 35.6676L55.8217 34.2183L48.2469 37.8615L49.5245 39.1296L51.2545 38.2038L53.2969 40.2467L52.371 41.9779L53.6388 43.2559ZM52.5424 37.5093C54.2324 36.6236 55.2785 36.0601 55.691 35.8186C55.6206 35.9293 55.53 36.0903 55.4194 36.2916C55.3087 36.4929 54.8357 37.3885 54.0008 38.9686L52.5424 37.5093ZM60.4591 40.8406L60.8216 41.2029C61.1338 41.4746 61.3667 41.8259 61.4955 42.2194C61.5266 42.372 61.5159 42.5301 61.4646 42.6771C61.4132 42.8242 61.3231 42.9546 61.2037 43.0547C61.0999 43.1762 60.9672 43.2694 60.8177 43.3257C60.6681 43.382 60.5067 43.3995 60.3486 43.3767C59.9534 43.2677 59.5999 43.0436 59.3328 42.7327L58.9501 42.3502L60.4591 40.8406ZM58.6185 43.9403L57.8036 47.4225L59.1215 48.741C59.2322 48.117 59.4933 46.7583 59.9158 44.6649C60.348 44.8449 60.8222 44.9007 61.2843 44.826C61.7215 44.7531 62.1232 44.5414 62.4308 44.2221C62.6876 44.0007 62.8869 43.72 63.0114 43.4044C63.1358 43.0889 63.182 42.7478 63.1455 42.4105C62.9536 41.5967 62.5098 40.8642 61.8777 40.3172L60.2479 38.6868L54.6546 44.2724L55.8418 45.46L57.9844 43.3163L58.6185 43.9403Z" fill="white"/>
</g>
<defs>
<clipPath id="clip0">
<rect width="69" height="69" fill="white"/>
</clipPath>
</defs>
</svg>
