<svg width="40" height="29" viewBox="0 0 40 29" fill="none" xmlns="http://www.w3.org/2000/svg">
<path fill-rule="evenodd" clip-rule="evenodd" d="M12.1978 0C10.1484 0 8.48705 1.66683 8.48705 3.72297C8.48705 5.77911 10.1484 7.44595 12.1978 7.44595C14.2473 7.44595 15.9086 5.77911 15.9086 3.72297C15.9086 1.66683 14.2473 0 12.1978 0ZM10.0495 3.72297C10.0495 2.53258 11.0113 1.56757 12.1978 1.56757C13.3843 1.56757 14.3462 2.53258 14.3462 3.72297C14.3462 4.91337 13.3843 5.87838 12.1978 5.87838C11.0113 5.87838 10.0495 4.91337 10.0495 3.72297Z" fill="white"/>
<path fill-rule="evenodd" clip-rule="evenodd" d="M22.4801 1.69724L14.1878 17.2963L11.6879 12.5308C10.6628 10.5767 7.87378 10.5767 6.84867 12.5308L0.31839 24.9791C-0.639913 26.8059 0.680427 29 2.73799 29H37.262C39.3261 29 40.6459 26.7931 39.6745 24.9658L27.3052 1.69724C26.2759 -0.239169 23.5094 -0.23917 22.4801 1.69724ZM25.9266 2.43492C25.4855 1.60503 24.2998 1.60503 23.8587 2.43492L11.4894 25.7035C11.0731 26.4866 11.6387 27.4324 12.5234 27.4324H37.262C38.1466 27.4324 38.7122 26.4866 38.2959 25.7035L25.9266 2.43492ZM10.1108 24.9658C9.67269 25.7899 9.70061 26.6912 10.0527 27.4324H2.73799C1.85618 27.4324 1.29032 26.4921 1.70102 25.7092L8.2313 13.2609C8.67064 12.4234 9.86591 12.4234 10.3052 13.2609L13.2991 18.968L10.1108 24.9658Z" fill="white"/>
</svg>
